<svg width="149" height="107" viewBox="0 0 149 107" fill="none" xmlns="http://www.w3.org/2000/svg">
<path d="M111.025 77.9832L98.3373 47.0571C97.6337 45.3414 97.2766 43.5314 97.2766 41.677V33.5023C97.2766 32.622 97.6195 31.7944 98.2421 31.1718C99.001 30.4128 99.4194 29.4035 99.4194 28.33V27.1719C99.4194 26.5246 98.8944 26 98.2476 26H81.8857C81.2384 26 80.7138 26.5246 80.7138 27.1719V28.33C80.7138 29.4035 81.1318 30.4128 81.8907 31.1718C82.5133 31.7944 82.8562 32.622 82.8562 33.5027V41.677C82.8562 43.5314 82.4996 45.3414 81.7955 47.0571L78.3092 55.5551C78.3078 55.5583 78.3065 55.5615 78.3051 55.5647L69.1077 77.9832C68.3711 79.779 68.5767 81.8138 69.6579 83.4255C70.7392 85.0378 72.5432 86 74.4841 86H105.649C107.59 86 109.394 85.0378 110.475 83.4255C111.556 81.8133 111.762 79.779 111.025 77.9832ZM83.964 47.9466C84.7843 45.9475 85.1999 43.8381 85.1999 41.677V33.5023C85.1999 31.9962 84.6135 30.5799 83.5483 29.5147C83.2352 29.2016 83.0612 28.7859 83.0576 28.3438H97.0757C97.072 28.7859 96.8981 29.2011 96.5845 29.5147C95.5197 30.5799 94.9329 31.9958 94.9329 33.5023V41.6766C94.9329 43.8377 95.349 45.9471 96.1688 47.9461L98.9983 54.8428H81.1345L83.964 47.9466ZM108.528 82.12C107.874 83.0964 106.824 83.6562 105.649 83.6562H74.4841C73.309 83.6562 72.2594 83.0964 71.6043 82.12C71.1104 81.3835 70.9218 80.5293 71.05 79.687H72.9808C73.6276 79.687 74.1527 79.1619 74.1527 78.5151C74.1527 77.8678 73.6276 77.3432 72.9808 77.3432H71.9042L73.25 74.062H75.2266C75.8739 74.062 76.3985 73.5369 76.3985 72.8901C76.3985 72.2428 75.8739 71.7182 75.2266 71.7182H74.2118L75.5576 68.437H77.59C78.2373 68.437 78.7619 67.9119 78.7619 67.2651C78.7619 66.6178 78.2373 66.0932 77.59 66.0932H76.5193L77.8656 62.812H79.953C80.6003 62.812 81.1249 62.2869 81.1249 61.6401C81.1249 60.9928 80.6003 60.4682 79.953 60.4682H78.8269L80.1732 57.187H99.9596L108.857 78.8731C109.303 79.9603 109.183 81.144 108.528 82.12Z" fill="#330C2F"/>
<path d="M105.238 78.0564C104.993 77.4572 104.309 77.1706 103.71 77.4155C103.111 77.6609 102.824 78.3448 103.069 78.944L103.075 78.9587C103.261 79.4123 103.698 79.687 104.16 79.687C104.308 79.687 104.458 79.659 104.604 79.5995C105.202 79.3542 105.489 78.6698 105.244 78.071L105.238 78.0564Z" fill="#330C2F"/>
<path d="M103.582 74.0189L99.3851 63.7897C99.1397 63.191 98.4554 62.9044 97.8561 63.1502C97.2574 63.3956 96.9713 64.0804 97.2166 64.6792L101.413 74.9084C101.599 75.362 102.036 75.6358 102.498 75.6358C102.646 75.6358 102.797 75.6078 102.942 75.5479C103.541 75.3025 103.828 74.6177 103.582 74.0189Z" fill="#330C2F"/>
<path d="M4.90319 86V27.68H13.0392V55.184L26.4312 27.68H33.9912L22.4712 53.384L35.8632 86H27.9432L16.7832 58.64L13.0392 65.408V86H4.90319ZM40.5516 86V27.68H48.6876V80.168H63.5916V86H40.5516Z" fill="#330C2F"/>
<path d="M115.657 86V27.68H129.049C131.689 27.68 133.969 27.968 135.889 28.544C137.857 29.12 139.489 30.008 140.785 31.208C142.081 32.408 143.041 33.944 143.665 35.816C144.289 37.64 144.601 39.8 144.601 42.296C144.601 44.696 144.289 46.784 143.665 48.56C143.089 50.288 142.177 51.656 140.929 52.664C139.729 53.672 138.169 54.32 136.249 54.608C138.601 55.136 140.497 56.048 141.937 57.344C143.377 58.592 144.433 60.224 145.105 62.24C145.825 64.208 146.185 66.584 146.185 69.368C146.185 71.864 145.897 74.144 145.321 76.208C144.745 78.272 143.833 80.024 142.585 81.464C141.385 82.904 139.825 84.032 137.905 84.848C136.033 85.616 133.801 86 131.209 86H115.657ZM123.793 80.168H129.265C132.913 80.168 135.337 79.328 136.537 77.648C137.785 75.92 138.409 73.16 138.409 69.368C138.409 66.92 138.073 64.88 137.401 63.248C136.777 61.568 135.745 60.32 134.305 59.504C132.913 58.64 131.017 58.208 128.617 58.208H123.793V80.168ZM123.793 52.016H128.617C130.921 52.016 132.721 51.704 134.017 51.08C135.313 50.408 136.225 49.352 136.753 47.912C137.281 46.472 137.545 44.6 137.545 42.296C137.545 39.608 137.137 37.664 136.321 36.464C135.505 35.264 134.233 34.52 132.505 34.232C130.777 33.896 128.521 33.728 125.737 33.728H123.793V52.016Z" fill="#330C2F"/>
</svg>

