<?xml version="1.0" encoding="UTF-8" standalone="no"?>
<svg
   xmlns:dc="http://purl.org/dc/elements/1.1/"
   xmlns:cc="http://creativecommons.org/ns#"
   xmlns:rdf="http://www.w3.org/1999/02/22-rdf-syntax-ns#"
   xmlns:svg="http://www.w3.org/2000/svg"
   xmlns="http://www.w3.org/2000/svg"
   id="svg4"
   version="1.1"
   fill="none"
   viewBox="0 0 272 69"
   height="69"
   width="272">
  <metadata
     id="metadata10">
    <rdf:RDF>
      <cc:Work
         rdf:about="">
        <dc:format>image/svg+xml</dc:format>
        <dc:type
           rdf:resource="http://purl.org/dc/dcmitype/StillImage" />
      </cc:Work>
    </rdf:RDF>
  </metadata>
  <defs
     id="defs8" />
  <path
     id="path2"
     fill="#330C2F"
     d="M37.984 27.792C40.864 28.704 43.12 30.24 44.752 32.4C46.384 34.512 47.2 37.128 47.2 40.248C47.2 44.664 45.472 48.072 42.016 50.472C38.608 52.824 33.616 54 27.04 54H0.976V3.6H25.6C31.744 3.6 36.448 4.776 39.712 7.128C43.024 9.48 44.68 12.672 44.68 16.704C44.68 19.152 44.08 21.336 42.88 23.256C41.728 25.176 40.096 26.688 37.984 27.792ZM12.568 12.384V24.264H24.16C27.04 24.264 29.224 23.76 30.712 22.752C32.2 21.744 32.944 20.256 32.944 18.288C32.944 16.32 32.2 14.856 30.712 13.896C29.224 12.888 27.04 12.384 24.16 12.384H12.568ZM26.176 45.216C29.248 45.216 31.552 44.712 33.088 43.704C34.672 42.696 35.464 41.136 35.464 39.024C35.464 34.848 32.368 32.76 26.176 32.76H12.568V45.216H26.176ZM73.6707 54.576C69.5907 54.576 65.9187 53.736 62.6547 52.056C59.4387 50.328 56.9187 47.952 55.0947 44.928C53.2707 41.904 52.3587 38.472 52.3587 34.632C52.3587 30.792 53.2707 27.36 55.0947 24.336C56.9187 21.312 59.4387 18.96 62.6547 17.28C65.9187 15.552 69.5907 14.688 73.6707 14.688C77.7507 14.688 81.3987 15.552 84.6147 17.28C87.8307 18.96 90.3507 21.312 92.1747 24.336C93.9987 27.36 94.9107 30.792 94.9107 34.632C94.9107 38.472 93.9987 41.904 92.1747 44.928C90.3507 47.952 87.8307 50.328 84.6147 52.056C81.3987 53.736 77.7507 54.576 73.6707 54.576ZM73.6707 45.36C76.5507 45.36 78.9027 44.4 80.7267 42.48C82.5987 40.512 83.5347 37.896 83.5347 34.632C83.5347 31.368 82.5987 28.776 80.7267 26.856C78.9027 24.888 76.5507 23.904 73.6707 23.904C70.7907 23.904 68.4147 24.888 66.5427 26.856C64.6707 28.776 63.7347 31.368 63.7347 34.632C63.7347 37.896 64.6707 40.512 66.5427 42.48C68.4147 44.4 70.7907 45.36 73.6707 45.36ZM141.874 0.575997V54H131.146V49.536C128.362 52.896 124.33 54.576 119.05 54.576C115.402 54.576 112.09 53.76 109.114 52.128C106.186 50.496 103.882 48.168 102.202 45.144C100.522 42.12 99.6824 38.616 99.6824 34.632C99.6824 30.648 100.522 27.144 102.202 24.12C103.882 21.096 106.186 18.768 109.114 17.136C112.09 15.504 115.402 14.688 119.05 14.688C123.994 14.688 127.858 16.248 130.642 19.368V0.575997H141.874ZM120.994 45.36C123.826 45.36 126.178 44.4 128.05 42.48C129.922 40.512 130.858 37.896 130.858 34.632C130.858 31.368 129.922 28.776 128.05 26.856C126.178 24.888 123.826 23.904 120.994 23.904C118.114 23.904 115.738 24.888 113.866 26.856C111.994 28.776 111.058 31.368 111.058 34.632C111.058 37.896 111.994 40.512 113.866 42.48C115.738 44.4 118.114 45.36 120.994 45.36ZM190.718 15.264L173.222 56.376C171.446 60.84 169.238 63.984 166.598 65.808C164.006 67.632 160.862 68.544 157.166 68.544C155.15 68.544 153.158 68.232 151.19 67.608C149.222 66.984 147.614 66.12 146.366 65.016L150.47 57.024C151.334 57.792 152.318 58.392 153.422 58.824C154.574 59.256 155.702 59.472 156.806 59.472C158.342 59.472 159.59 59.088 160.55 58.32C161.51 57.6 162.374 56.376 163.142 54.648L163.286 54.288L146.51 15.264H158.102L168.974 41.544L179.918 15.264H190.718ZM196.525 54V2.88H230.077V7.344H201.565V26.136H225.613V30.312H201.565V54H196.525ZM237.916 54V16.488H242.812V54H237.916ZM237.916 8.64V1.44H242.812V8.64H237.916ZM271.595 52.2C271.307 52.344 270.875 52.536 270.299 52.776C269.771 53.016 269.147 53.256 268.427 53.496C267.707 53.736 266.891 53.952 265.979 54.144C265.067 54.336 264.107 54.432 263.099 54.432C262.043 54.432 261.035 54.288 260.075 54C259.115 53.712 258.275 53.28 257.555 52.704C256.835 52.08 256.259 51.312 255.827 50.4C255.395 49.488 255.179 48.432 255.179 47.232V20.376H249.995V16.488H255.179V3.816H260.075V16.488H268.715V20.376H260.075V45.864C260.171 47.256 260.651 48.288 261.515 48.96C262.427 49.584 263.459 49.896 264.611 49.896C266.003 49.896 267.227 49.68 268.283 49.248C269.339 48.768 270.011 48.432 270.299 48.24L271.595 52.2Z" />
</svg>
